<?xml version="1.0" standalone="no"?>
<!DOCTYPE svg PUBLIC "-//W3C//DTD SVG 20010904//EN"
 "http://www.w3.org/TR/2001/REC-SVG-20010904/DTD/svg10.dtd">
<svg version="1.0" xmlns="http://www.w3.org/2000/svg"
 width="45px" height="45px" viewBox="0 0 1024.000000 1024.000000"
 preserveAspectRatio="xMidYMid meet">

<g transform="translate(0.000000,1024.000000) scale(0.100000,-0.100000)"
fill="#FFFFFF" stroke="none">
<path d="M4930 8105 c-141 -15 -311 -47 -427 -81 -347 -98 -727 -298 -993
-522 -129 -108 -340 -327 -426 -442 -310 -415 -494 -910 -545 -1460 -15 -160
-6 -635 15 -782 57 -406 154 -733 310 -1048 291 -584 707 -998 1291 -1285 307
-151 624 -242 965 -277 182 -19 604 -16 755 6 595 84 994 252 1570 661 169
120 210 156 238 209 l22 41 0 1210 0 1210 -25 45 c-28 49 -73 84 -129 100 -23
6 -472 10 -1263 10 l-1228 0 0 -280 0 -280 873 0 874 0 61 -31 c66 -33 109
-77 145 -149 l22 -45 3 -860 c2 -845 2 -861 -18 -893 -21 -35 -74 -72 -102
-72 -17 0 -18 52 -20 858 -3 970 3 892 -85 979 -81 78 3 74 -1299 71 l-1159
-3 -41 -22 c-67 -36 -101 -70 -131 -131 l-28 -57 -5 -589 -5 -589 -69 79
c-355 404 -539 845 -575 1379 -18 263 4 570 56 784 164 680 629 1199 1228
1373 560 162 1227 0 1647 -401 l48 -45 207 215 c114 118 251 259 305 315 54
55 98 103 98 106 0 15 -206 178 -330 260 -313 209 -700 356 -1087 413 -247 36
-527 44 -743 20z m1720 -3355 c20 -20 20 -33 20 -778 l0 -758 -227 228 c-261
262 -279 274 -398 266 -84 -6 -120 -23 -193 -92 l-54 -51 -277 283 c-307 314
-324 327 -436 326 -105 -1 -124 -15 -415 -308 -146 -147 -266 -271 -268 -277
-18 -49 -22 58 -22 561 l0 571 25 24 24 25 1101 0 c1087 0 1100 0 1120 -20z"/>
<path d="M6162 4588 c-6 -7 -14 -27 -18 -43 -15 -63 -62 -152 -91 -173 -16
-11 -63 -32 -104 -46 -45 -15 -75 -31 -77 -41 -4 -16 7 -21 112 -60 80 -29
115 -69 146 -166 36 -110 54 -113 90 -14 48 130 65 147 195 195 42 15 70 31
70 40 0 9 -30 25 -75 42 -118 44 -152 77 -190 193 -24 71 -41 93 -58 73z"/>
</g>
</svg>
